HIERARCHY
ROOT Hips
{
 OFFSET 0.000000 0.000000 0.000000
 CHANNELS 6 Xposition Yposition Zposition Yrotation Xrotation Zrotation
 JOINT Chest
 {
  OFFSET 0.000000 9.588913 -0.003946
  CHANNELS 3 Yrotation Xrotation Zrotation
  JOINT Chest2
  {
   OFFSET 0.000000 9.541882 0.008053
   CHANNELS 3 Yrotation Xrotation Zrotation
   JOINT Chest3
   {
    OFFSET 0.000000 9.501360 0.000000
    CHANNELS 3 Yrotation Xrotation Zrotation
    JOINT Chest4
    {
     OFFSET 0.000000 9.491660 0.000000
     CHANNELS 3 Yrotation Xrotation Zrotation
     JOINT Neck
     {
      OFFSET 0.000000 14.331917 0.000000
      CHANNELS 3 Yrotation Xrotation Zrotation
      JOINT Head
      {
       OFFSET 0.000000 8.884799 0.017034
       CHANNELS 3 Yrotation Xrotation Zrotation
       End Site
       {
        OFFSET 0.000000 16.896195 0.008993
       }
      }
     }
     JOINT RightCollar
     {
      OFFSET -2.923010 9.499495 0.000000
      CHANNELS 3 Yrotation Xrotation Zrotation
      JOINT RightShoulder
      {
       OFFSET -13.795216 0.000000 0.000000
       CHANNELS 3 Yrotation Xrotation Zrotation
       JOINT RightElbow
       {
        OFFSET -30.272209 0.000000 0.000000
        CHANNELS 3 Yrotation Xrotation Zrotation
        JOINT RightWrist
        {
         OFFSET -24.478199 0.000000 0.000000
         CHANNELS 3 Yrotation Xrotation Zrotation
         End Site
         {
          OFFSET -18.090752 0.000000 0.000000
         }
        }
       }
      }
     }
     JOINT LeftCollar
     {
      OFFSET 2.923010 9.499495 0.000000
      CHANNELS 3 Yrotation Xrotation Zrotation
      JOINT LeftShoulder
      {
       OFFSET 13.795216 0.000000 0.000000
       CHANNELS 3 Yrotation Xrotation Zrotation
       JOINT LeftElbow
       {
        OFFSET 30.272209 0.000000 0.000000
        CHANNELS 3 Yrotation Xrotation Zrotation
        JOINT LeftWrist
        {
         OFFSET 24.478199 0.000000 0.000000
         CHANNELS 3 Yrotation Xrotation Zrotation
         End Site
         {
          OFFSET 18.090752 0.000000 0.000000
         }
        }
       }
      }
     }
    }
   }
  }
 }
 JOINT RightHip
 {
  OFFSET -7.826875 0.019532 0.001973
  CHANNELS 3 Yrotation Xrotation Zrotation
  JOINT RightKnee
  {
   OFFSET 0.000000 -40.546152 -0.001885
   CHANNELS 3 Yrotation Xrotation Zrotation
   JOINT RightAnkle
   {
    OFFSET 0.000000 -39.417092 -0.003189
    CHANNELS 3 Yrotation Xrotation Zrotation
    JOINT RightToe
    {
     OFFSET 0.000000 -7.579396 17.243563
     CHANNELS 3 Yrotation Xrotation Zrotation
     End Site
     {
      OFFSET 0.000000 -1.500329 6.694466
     }
    }
   }
  }
 }
 JOINT LeftHip
 {
  OFFSET 7.826875 0.019532 0.001973
  CHANNELS 3 Yrotation Xrotation Zrotation
  JOINT LeftKnee
  {
   OFFSET 0.000000 -40.546152 -0.001885
   CHANNELS 3 Yrotation Xrotation Zrotation
   JOINT LeftAnkle
   {
    OFFSET 0.000000 -39.417092 -0.003189
    CHANNELS 3 Yrotation Xrotation Zrotation
    JOINT LeftToe
    {
     OFFSET 0.000000 -7.579396 17.243563
     CHANNELS 3 Yrotation Xrotation Zrotation
     End Site
     {
      OFFSET 0.000000 -1.500329 6.694466
     }
    }
   }
  }
 }
}
MOTION
Frames: 7
Frame Time: 0.008333
5.589876 88.923863 7.094154 44.442828 -6.638489 1.326816 0.468461 0.255575 1.025487 0.268674 0.155127 0.559704 0.336079 0.193498 0.699744 0.268674 0.155127 0.559704 1.975962 23.675840 -1.125277 2.393773 -0.198209 -1.668268 11.590172 -4.042717 3.934928 -1.942417 -28.315067 82.145863 84.313895 -25.644656 35.813232 20.237954 -9.374781 -4.967808 -7.918180 -2.755772 -2.848304 -4.375325 -7.401409 -82.745459 -17.296832 9.222500 -53.953351 -1.635881 -6.830836 -7.093352 1.989240 9.810012 1.271648 -1.154780 1.088507 0.640894 2.738370 -4.398177 -2.176783 -0.010158 0.052266 -0.005400 -0.982967 4.799592 0.118253 0.284419 13.305384 0.661027 2.655357 -10.470252 -3.217350 0.005842 0.016852 -0.054929
5.624621 88.938214 7.093743 44.435904 -6.585715 1.364159 0.469018 0.233283 0.990817 0.269100 0.142551 0.541772 0.336585 0.177790 0.677319 0.269100 0.142551 0.541772 1.948316 23.673646 -1.146795 2.368734 -0.201214 -1.685183 11.621603 -4.075674 3.934270 -1.921817 -28.454634 82.176369 84.551066 -25.721470 35.848490 20.209228 -9.378150 -4.939093 -7.960076 -2.783494 -2.838842 -4.467520 -7.423205 -82.719986 -17.307680 9.275798 -54.082038 -1.623283 -6.834333 -7.092143 1.936318 9.775757 1.205252 -1.144995 1.088325 0.639109 2.777493 -4.405848 -2.155593 -0.009948 0.047251 -0.006851 -0.936689 4.995017 0.074018 0.279749 12.838518 0.653572 2.613404 -10.270349 -3.172221 0.006735 0.019830 -0.050091
5.658221 88.952136 7.094270 44.432032 -6.531621 1.400217 0.467824 0.210649 0.957769 0.268542 0.129938 0.524568 0.335863 0.162038 0.655806 0.268542 0.129938 0.524568 1.920576 23.671701 -1.168839 2.343721 -0.203899 -1.702646 11.654262 -4.109003 3.930982 -1.899809 -28.590633 82.203375 84.786494 -25.803348 35.882575 20.180287 -9.380895 -4.915643 -7.998357 -2.814676 -2.827733 -4.560135 -7.441945 -82.696479 -17.312941 9.325954 -54.214631 -1.615158 -6.841810 -7.091887 1.882472 9.741343 1.139896 -1.131771 1.085616 0.639043 2.813544 -4.412477 -2.135436 -0.009871 0.042544 -0.008342 -0.888022 5.191879 0.033976 0.278701 12.365277 0.644835 2.563561 -10.067211 -3.128647 0.007482 0.023010 -0.044873
5.690672 88.965550 7.095583 44.428934 -6.476408 1.435882 0.465763 0.187046 0.926220 0.267598 0.116839 0.508307 0.334659 0.145678 0.635469 0.267598 0.116839 0.508307 1.892015 23.672192 -1.192229 2.318150 -0.203621 -1.721389 11.687118 -4.138724 3.924802 -1.872342 -28.726564 82.230002 85.023520 -25.883934 35.908842 20.150720 -9.381834 -4.893757 -8.032082 -2.845250 -2.817404 -4.659843 -7.462035 -82.674293 -17.318371 9.368550 -54.347649 -1.608432 -6.849400 -7.092848 1.833194 9.705738 1.077000 -1.119333 1.082513 0.639687 2.842729 -4.419607 -2.117201 -0.010079 0.038540 -0.009347 -0.834637 5.389477 -0.003551 0.284059 11.887512 0.637336 2.503685 -9.860192 -3.088173 0.008131 0.025158 -0.039051
5.721930 88.978389 7.097426 44.427864 -6.419426 1.471623 0.462595 0.161573 0.895415 0.266177 0.102577 0.492532 0.332859 0.127864 0.615739 0.266177 0.102577 0.492532 1.862303 23.677589 -1.217173 2.291734 -0.197400 -1.741577 11.721226 -4.164337 3.916932 -1.841237 -28.863491 82.262110 85.258207 -25.958356 35.928595 20.124620 -9.383348 -4.870219 -8.063563 -2.871100 -2.807431 -4.766269 -7.487887 -82.652741 -17.329103 9.404702 -54.476539 -1.600105 -6.850280 -7.100836 1.786821 9.668854 1.015751 -1.109108 1.077870 0.640893 2.867632 -4.426555 -2.101578 -0.010486 0.035308 -0.009261 -0.777797 5.586377 -0.039274 0.292793 11.406097 0.629288 2.438278 -9.648931 -3.048691 0.008461 0.026245 -0.033832
5.751825 88.990606 7.099783 44.429266 -6.360148 1.506254 0.457315 0.134019 0.865002 0.263593 0.087055 0.477094 0.329603 0.108476 0.596430 0.263593 0.087055 0.477094 1.832778 23.688624 -1.244474 2.266114 -0.184287 -1.764395 11.762430 -4.187396 3.911192 -1.810974 -29.000902 82.299921 85.487118 -26.028749 35.948377 20.103893 -9.387090 -4.847865 -8.093100 -2.892031 -2.797506 -4.875517 -7.516339 -82.629488 -17.354444 9.437021 -54.601655 -1.590570 -6.840894 -7.118676 1.741681 9.631172 0.956284 -1.100054 1.069360 0.641713 2.894357 -4.431954 -2.086187 -0.010791 0.032962 -0.009112 -0.717251 5.781683 -0.071580 0.298471 10.921676 0.618112 2.373627 -9.433899 -3.007907 0.008424 0.026854 -0.030317
5.780428 89.002215 7.103041 44.433975 -6.300541 1.537798 0.449863 0.105003 0.835801 0.259782 0.070785 0.462575 0.324817 0.088153 0.578269 0.259782 0.070785 0.462575 1.804241 23.705354 -1.274553 2.242251 -0.164171 -1.790484 11.811862 -4.208621 3.909126 -1.787343 -29.140309 82.340872 85.705240 -26.100355 35.976654 20.085840 -9.392053 -4.829338 -8.122724 -2.909618 -2.791346 -4.983692 -7.544600 -82.600709 -17.399059 9.470325 -54.727389 -1.580690 -6.826885 -7.138592 1.698280 9.595038 0.902085 -1.092659 1.056539 0.640994 2.919265 -4.435692 -2.070186 -0.011010 0.031013 -0.009528 -0.654019 5.978704 -0.097766 0.297949 10.432190 0.603212 2.309403 -9.215618 -2.965556 0.008325 0.028082 -0.028560
